<svg width="50" height="50" fill="#00258c" viewBox="0 0 24 24" xmlns="http://www.w3.org/2000/svg">
<path d="M3.75 5.25A.751.751 0 0 0 3 6c0 .413.337.75.75.75h1.664l1.969 7.875a1.487 1.487 0 0 0 1.453 1.125h8.601c.677 0 1.252-.448 1.43-1.102L20.812 7.5H8.25L8.625 9h10.242l-1.43 5.25H8.836L6.867 6.375A1.487 1.487 0 0 0 5.414 5.25H3.75Zm12.75 10.5A2.262 2.262 0 0 0 14.25 18a2.262 2.262 0 0 0 2.25 2.25A2.262 2.262 0 0 0 18.75 18a2.262 2.262 0 0 0-2.25-2.25Zm-6.75 0A2.262 2.262 0 0 0 7.5 18a2.262 2.262 0 0 0 2.25 2.25A2.262 2.262 0 0 0 12 18a2.262 2.262 0 0 0-2.25-2.25Zm0 1.5a.74.74 0 0 1 .75.75.74.74 0 0 1-.75.75A.74.74 0 0 1 9 18a.74.74 0 0 1 .75-.75Zm6.75 0a.74.74 0 0 1 .75.75.74.74 0 0 1-.75.75.74.74 0 0 1-.75-.75.74.74 0 0 1 .75-.75Z"></path>
</svg>