<svg width="50" height="50" fill="#00258c" viewBox="0 0 24 24" xmlns="http://www.w3.org/2000/svg">
<path fill-rule="evenodd" d="M.05 2.4A2.35 2.35 0 0 1 2.4.05h19.2a2.35 2.35 0 0 1 2.35 2.35v13.737c0 .144-.013.286-.039.425a.75.75 0 0 1-.18.768l-6.4 6.4a.75.75 0 0 1-.769.181c-.14.026-.281.039-.425.039H2.4A2.35 2.35 0 0 1 .05 21.6V2.4Zm16 20.05H2.4a.85.85 0 0 1-.85-.85V2.4c0-.47.38-.85.85-.85h19.2c.47 0 .85.38.85.85v13.65H16.8a.75.75 0 0 0-.75.75v5.65Zm3.15-16.1H4.8v-1.5h14.4v1.5Zm-1.65 11.2v3.84l3.84-3.84h-3.84Z" clip-rule="evenodd"></path>
</svg>