<svg width="50" height="50" fill="#00258c" viewBox="0 0 24 24" xmlns="http://www.w3.org/2000/svg">
<path fill-rule="evenodd" d="M11.705.11a.75.75 0 0 1 .59 0l11.2 4.797a.75.75 0 0 1 .455.69V18.4a.75.75 0 0 1-.455.69l-11.2 4.8a.75.75 0 0 1-.59 0l-11.2-4.8a.75.75 0 0 1-.455-.69V5.597c0-.3.179-.571.455-.69l11.2-4.796Zm-.455 10.78-9.7-4.152v11.168l9.7 4.158V10.889Zm1.5 11.174 9.7-4.157V6.735l-9.7 4.16v11.168Zm8.545-16.466L12 1.616l-9.295 3.98L12 9.579l9.295-3.981Z" clip-rule="evenodd"></path>
</svg>